# xmcd
#
# Track frame offsets:
#        150
#        20103
#        41189
#
# Disc length: 784 seconds
#
# Revision: 0
# Processed by: cddbd v1.5.1PL2 Copyright (c) Steve Scherf et al.
# Submitted via: ExactAudioCopy v0.95a5
#
DISCID=24030e03
DTITLE=perfect piano lesson - two hundred and forty one mondays
DYEAR=2005
DGENRE=Alternative
TTITLE0=two hundred and forty one mondays
TTITLE1=TABLE DISCO
TTITLE2=plastic london
EXTD=
EXTT0=
EXTT1=
EXTT2=
PLAYORDER=
